<?xml version="1.0" standalone="no"?>
<!DOCTYPE svg PUBLIC "-//W3C//DTD SVG 20010904//EN"
 "http://www.w3.org/TR/2001/REC-SVG-20010904/DTD/svg10.dtd">
<svg version="1.0" xmlns="http://www.w3.org/2000/svg"
 width="300.000000pt" height="300.000000pt" viewBox="0 0 300.000000 300.000000"
 preserveAspectRatio="xMidYMid meet">
<metadata>
Created by potrace 1.10, written by Peter Selinger 2001-2011
</metadata>
<g transform="translate(0.000000,300.000000) scale(0.100000,-0.100000)"
fill="#000000" stroke="none">
<path d="M1965 2471 c-16 -10 -301 -291 -631 -622 l-602 -604 -91 -268 c-50
-148 -91 -275 -91 -283 0 -7 10 -20 22 -28 21 -14 46 -8 303 71 l280 85 608
607 c334 333 614 620 622 638 20 43 19 96 -4 141 -25 47 -237 258 -274 271
-44 17 -109 13 -142 -8z m162 -90 c55 -44 162 -154 187 -191 30 -46 21 -86
-34 -143 l-49 -52 -166 165 -166 165 50 48 c66 63 107 65 178 8z m-109 -274
l163 -163 -31 -29 -31 -29 -164 164 -165 164 27 28 c15 15 29 28 32 28 4 0 79
-73 169 -163z m-218 8 l45 -45 -440 -440 c-429 -429 -440 -439 -449 -413 -14
44 -26 53 -70 53 l-41 0 445 445 c245 245 450 445 455 445 6 0 31 -20 55 -45z
m135 -135 l40 -40 -426 -426 -426 -426 -59 12 c-32 7 -63 15 -68 17 -8 5 882
903 894 903 3 0 24 -18 45 -40z m115 -115 l24 -26 -454 -454 -455 -455 -3 52
-3 52 428 428 c235 235 431 428 434 428 3 0 16 -11 29 -25z m-1147 -725 c5
-30 13 -60 18 -66 5 -6 45 -19 89 -29 l81 -18 -3 -76 -3 -75 -130 -43 -130
-42 -64 64 -64 64 38 118 c57 180 47 165 107 161 l53 -3 8 -55z"/>
</g>
</svg>
